<?xml version="1.0" standalone="no"?>
<!DOCTYPE svg PUBLIC "-//W3C//DTD SVG 20010904//EN"
 "http://www.w3.org/TR/2001/REC-SVG-20010904/DTD/svg10.dtd">
<svg version="1.0" xmlns="http://www.w3.org/2000/svg"
 width="55.000000pt" height="54.000000pt" viewBox="0 0 55.000000 54.000000"
 preserveAspectRatio="xMidYMid meet">

<g transform="translate(0.000000,54.000000) scale(0.100000,-0.100000)"
fill="#000000" stroke="none">
<path d="M211 519 c-136 -40 -212 -186 -166 -320 21 -59 41 -81 107 -118 98
-56 180 -52 282 12 36 23 55 44 72 81 90 194 -90 404 -295 345z m149 -159
l-75 -69 25 -28 c13 -15 47 -52 74 -80 l50 -53 -152 0 -152 0 0 150 0 150 153
0 152 -1 -75 -69z"/>
</g>
</svg>
