<svg width="854" height="215" viewBox="0 0 854 215" fill="none" xmlns="http://www.w3.org/2000/svg">
<path d="M107.5 0C166.871 4.1233e-06 215 48.1294 215 107.5C215 166.871 166.871 215 107.5 215C48.1294 215 4.1238e-06 166.871 0 107.5C0 48.1294 48.1294 0 107.5 0ZM43 43V172.518H172.519L107.759 103.873L172.519 43H43Z" fill="#DE252B"/>
<path d="M297.96 108.688C297.96 112.528 298.387 116.283 299.24 119.952C300.179 123.536 301.629 126.779 303.592 129.68C305.555 132.581 308.115 134.928 311.272 136.72C314.429 138.427 318.269 139.28 322.792 139.28C327.315 139.28 331.155 138.427 334.312 136.72C337.469 134.928 340.029 132.581 341.992 129.68C343.955 126.779 345.363 123.536 346.216 119.952C347.155 116.283 347.624 112.528 347.624 108.688C347.624 104.677 347.155 100.795 346.216 97.04C345.363 93.2853 343.955 89.9573 341.992 87.056C340.029 84.0693 337.469 81.7227 334.312 80.016C331.155 78.224 327.315 77.328 322.792 77.328C318.269 77.328 314.429 78.224 311.272 80.016C308.115 81.7227 305.555 84.0693 303.592 87.056C301.629 89.9573 300.179 93.2853 299.24 97.04C298.387 100.795 297.96 104.677 297.96 108.688ZM277.864 108.688C277.864 101.861 278.888 95.5467 280.936 89.744C282.984 83.856 285.928 78.736 289.768 74.384C293.608 70.032 298.301 66.6187 303.848 64.144C309.48 61.6693 315.795 60.432 322.792 60.432C329.875 60.432 336.189 61.6693 341.736 64.144C347.283 66.6187 351.976 70.032 355.816 74.384C359.656 78.736 362.6 83.856 364.648 89.744C366.696 95.5467 367.72 101.861 367.72 108.688C367.72 115.344 366.696 121.573 364.648 127.376C362.6 133.093 359.656 138.085 355.816 142.352C351.976 146.619 347.283 149.989 341.736 152.464C336.189 154.853 329.875 156.048 322.792 156.048C315.795 156.048 309.48 154.853 303.848 152.464C298.301 149.989 293.608 146.619 289.768 142.352C285.928 138.085 282.984 133.093 280.936 127.376C278.888 121.573 277.864 115.344 277.864 108.688ZM381.457 62.608H401.425L439.569 123.92H439.825V62.608H458.641V154H438.545L400.529 92.816H400.273V154H381.457V62.608ZM476.332 62.608H496.428V100.496L532.14 62.608H557.228L521.516 98.704L560.684 154H535.468L507.948 112.912L496.428 124.56V154H476.332V62.608ZM584.835 108.688C584.835 112.528 585.262 116.283 586.115 119.952C587.054 123.536 588.504 126.779 590.467 129.68C592.43 132.581 594.99 134.928 598.147 136.72C601.304 138.427 605.144 139.28 609.667 139.28C614.19 139.28 618.03 138.427 621.187 136.72C624.344 134.928 626.904 132.581 628.867 129.68C630.83 126.779 632.238 123.536 633.091 119.952C634.03 116.283 634.499 112.528 634.499 108.688C634.499 104.677 634.03 100.795 633.091 97.04C632.238 93.2853 630.83 89.9573 628.867 87.056C626.904 84.0693 624.344 81.7227 621.187 80.016C618.03 78.224 614.19 77.328 609.667 77.328C605.144 77.328 601.304 78.224 598.147 80.016C594.99 81.7227 592.43 84.0693 590.467 87.056C588.504 89.9573 587.054 93.2853 586.115 97.04C585.262 100.795 584.835 104.677 584.835 108.688ZM564.739 108.688C564.739 101.861 565.763 95.5467 567.811 89.744C569.859 83.856 572.803 78.736 576.643 74.384C580.483 70.032 585.176 66.6187 590.723 64.144C596.355 61.6693 602.67 60.432 609.667 60.432C616.75 60.432 623.064 61.6693 628.611 64.144C634.158 66.6187 638.851 70.032 642.691 74.384C646.531 78.736 649.475 83.856 651.523 89.744C653.571 95.5467 654.595 101.861 654.595 108.688C654.595 115.344 653.571 121.573 651.523 127.376C649.475 133.093 646.531 138.085 642.691 142.352C638.851 146.619 634.158 149.989 628.611 152.464C623.064 154.853 616.75 156.048 609.667 156.048C602.67 156.048 596.355 154.853 590.723 152.464C585.176 149.989 580.483 146.619 576.643 142.352C572.803 138.085 569.859 133.093 567.811 127.376C565.763 121.573 564.739 115.344 564.739 108.688ZM668.332 62.608H688.3L726.444 123.92H726.7V62.608H745.516V154H725.42L687.404 92.816H687.148V154H668.332V62.608ZM779.335 108.688C779.335 112.528 779.762 116.283 780.615 119.952C781.554 123.536 783.004 126.779 784.967 129.68C786.93 132.581 789.49 134.928 792.647 136.72C795.804 138.427 799.644 139.28 804.167 139.28C808.69 139.28 812.53 138.427 815.687 136.72C818.844 134.928 821.404 132.581 823.367 129.68C825.33 126.779 826.738 123.536 827.591 119.952C828.53 116.283 828.999 112.528 828.999 108.688C828.999 104.677 828.53 100.795 827.591 97.04C826.738 93.2853 825.33 89.9573 823.367 87.056C821.404 84.0693 818.844 81.7227 815.687 80.016C812.53 78.224 808.69 77.328 804.167 77.328C799.644 77.328 795.804 78.224 792.647 80.016C789.49 81.7227 786.93 84.0693 784.967 87.056C783.004 89.9573 781.554 93.2853 780.615 97.04C779.762 100.795 779.335 104.677 779.335 108.688ZM759.239 108.688C759.239 101.861 760.263 95.5467 762.311 89.744C764.359 83.856 767.303 78.736 771.143 74.384C774.983 70.032 779.676 66.6187 785.223 64.144C790.855 61.6693 797.17 60.432 804.167 60.432C811.25 60.432 817.564 61.6693 823.111 64.144C828.658 66.6187 833.351 70.032 837.191 74.384C841.031 78.736 843.975 83.856 846.023 89.744C848.071 95.5467 849.095 101.861 849.095 108.688C849.095 115.344 848.071 121.573 846.023 127.376C843.975 133.093 841.031 138.085 837.191 142.352C833.351 146.619 828.658 149.989 823.111 152.464C817.564 154.853 811.25 156.048 804.167 156.048C797.17 156.048 790.855 154.853 785.223 152.464C779.676 149.989 774.983 146.619 771.143 142.352C767.303 138.085 764.359 133.093 762.311 127.376C760.263 121.573 759.239 115.344 759.239 108.688Z" fill="#DE252B"/>
</svg>
